<svg xmlns="http://www.w3.org/2000/svg" width="29.307" height="32.046" viewBox="0 0 29.307 32.046"><defs><style>.a{fill:none;stroke:#000;stroke-linecap:round;stroke-linejoin:round;stroke-width:3px;}</style></defs><g transform="translate(-2.846 -1.457)"><path class="a" d="M30.5,23.218V11.665a2.888,2.888,0,0,0-1.444-2.5L18.944,3.39a2.889,2.889,0,0,0-2.889,0L5.944,9.167a2.888,2.888,0,0,0-1.444,2.5V23.218a2.888,2.888,0,0,0,1.444,2.5l10.111,5.777a2.889,2.889,0,0,0,2.889,0l10.111-5.777a2.888,2.888,0,0,0,1.444-2.5Z" transform="translate(0 0)"/><path class="a" d="M4.9,10.44l12.6,7.575L30.095,10.44" transform="translate(0 -0.368)"/><path class="a" d="M18,33.12V18" transform="translate(-0.5 -1.117)"/></g></svg>