<svg xmlns="http://www.w3.org/2000/svg" width="23" height="23" viewBox="0 0 23 23"><defs><style>.a{fill:#fff;}</style></defs><path class="a" d="M3.45,3.45A10.44,10.44,0,0,1,11.5,0a10.44,10.44,0,0,1,8.05,3.45A10.44,10.44,0,0,1,23,11.5a10.44,10.44,0,0,1-3.45,8.05A10.44,10.44,0,0,1,11.5,23a10.44,10.44,0,0,1-8.05-3.45A11.477,11.477,0,0,1,0,11.5,10.44,10.44,0,0,1,3.45,3.45ZM13.033,20.7q1.15,0,2.875-1.725A8.372,8.372,0,0,0,17.25,14.95a3.174,3.174,0,0,0-.958-2.3A3.374,3.374,0,0,0,13.8,11.5H11.883a5.6,5.6,0,0,1-1.725-.383,1.74,1.74,0,0,1-.575-1.342,1,1,0,0,1,.383-.767,1.453,1.453,0,0,1,.767-.383,1.308,1.308,0,0,1,.958.575c.383.192.575.383.767.383a1.152,1.152,0,0,0,.767-.192,1.152,1.152,0,0,0,.192-.767,3.05,3.05,0,0,0-.958-1.917,7.928,7.928,0,0,0,.958-3.642.412.412,0,0,0-.383-.383A5.925,5.925,0,0,0,11.5,2.3,9.588,9.588,0,0,0,6.517,3.833,4.825,4.825,0,0,0,4.792,7.667a4.908,4.908,0,0,0,1.533,3.642,5.236,5.236,0,0,0,3.642,1.533h0v.767a4.177,4.177,0,0,0,.767,1.917,2.791,2.791,0,0,0,1.725,1.15v3.45c0,.192,0,.192.192.383S12.842,20.7,13.033,20.7Z"/></svg>