<svg xmlns="http://www.w3.org/2000/svg" width="1030.73" height="119.5" viewBox="0 0 1030.73 119.5"><defs><style>.a{fill:none;stroke:#707070;stroke-width:3px;}.b,.d{fill:#707070;}.c,.e{fill:#fff;}.d{stroke:#1a1311;stroke-miterlimit:10;}.e{font-size:16px;font-family:NotoSansKR-Regular, Noto Sans KR;}</style></defs><g transform="translate(-479.77 -236)"><line class="a" x2="994.579" transform="translate(480.422 262.619)"/><g transform="translate(479.77 236)"><circle class="b" cx="26" cy="26" r="26"/><path class="c" d="M8.978,15.614,0,6.636,1.822,4.814l7.157,7.026L20.819,0l1.822,1.822Z" transform="translate(14.313 18.169)"/></g><g transform="translate(794.402 236)"><circle class="b" cx="26" cy="26" r="26"/><path class="c" d="M8.978,15.614,0,6.636,1.822,4.814l7.157,7.026L20.819,0l1.822,1.822Z" transform="translate(13.9 18.169)"/></g><g transform="translate(1107.971 236)"><circle class="b" cx="26" cy="26" r="26"/><path class="c" d="M8.978,15.614,0,6.636,1.822,4.814l7.157,7.026L20.819,0l1.822,1.822Z" transform="translate(14.487 18.169)"/></g><g transform="translate(1422.541 236)"><circle cx="26" cy="26" r="26"/><path class="c" d="M8.978,15.614,0,6.636,1.822,4.814l7.157,7.026L20.819,0l1.822,1.822Z" transform="translate(14.075 18.169)"/></g><path class="d" d="M229.982,261.011H185.4L172.2,247.84l-13.113,13.171H114.514a3.263,3.263,0,0,0-3.266,3.259v40.31a3.263,3.263,0,0,0,3.266,3.26H229.982a3.263,3.263,0,0,0,3.266-3.26V264.27A3.263,3.263,0,0,0,229.982,261.011Z" transform="translate(1276.752 47.16)"/><text class="e" transform="translate(1449 337)"><tspan x="-31.232" y="0">문의 완료</tspan></text></g></svg>