{"accessors" : [{"bufferView" : 0, "byteOffset" : 0, "componentType" : 5125, "count" : 75684, "type" : "SCALAR", "max" : [75683], "min" : [0]}, {"bufferView" : 1, "byteOffset" : 0, "componentType" : 5126, "count" : 75684, "type" : "VEC3", "max" : [78.7364501953125, 67.15132904052734, 58.32280349731445], "min" : [42.42387390136719, 29.028738021850586, -4.274828910827637], "name" : "POSITION"}, {"bufferView" : 1, "byteOffset" : 12, "componentType" : 5126, "count" : 75684, "type" : "VEC3", "max" : [0.9997162818908691, 0.999958872795105, 0.9998497366905212], "min" : [-0.9997162818908691, -0.9999937415122986, -1.0000044107437134], "name" : "NORMAL"}], "asset" : {"generator" : "Aspose.3D 22.10", "version" : "2.0"}, "buffers" : [{"uri" : "data:application/octet-stream;base64,", "byteLength" : 2119160}], "bufferViews" : [{"buffer" : 0, "byteOffset" : 0, "byteLength" : 302736, "target" : 34963}, {"buffer" : 0, "byteOffset" : 302740, "byteLength" : 1816416, "byteStride" : 24, "target" : 34962}], "meshes" : [{"primitives" : [{"attributes" : {"POSITION" : 1, "NORMAL" : 2}, "indices" : 0, "mode" : 4}], "name" : "ryan"}], "nodes" : [{"mesh" : 0, "name" : "ryan"}], "scene" : 0, "scenes" : [{"nodes" : [0]}]}