{"accessors" : [{"bufferView" : 0, "byteOffset" : 0, "componentType" : 5123, "count" : 11982, "type" : "SCALAR", "max" : [11981], "min" : [0]}, {"bufferView" : 1, "byteOffset" : 0, "componentType" : 5126, "count" : 11982, "type" : "VEC3", "max" : [148.0897979736328, 146.77273559570312, 161.12615966796875], "min" : [-3.337860107421875E-06, 5.334615707397461E-06, 7.62939453125E-06], "name" : "POSITION"}, {"bufferView" : 1, "byteOffset" : 12, "componentType" : 5126, "count" : 11982, "type" : "VEC3", "max" : [0.9996698498725891, 0.9998579621315002, 0.9997429251670837], "min" : [-0.9992499947547913, -1.0000044107437134, -0.9993679523468018], "name" : "NORMAL"}], "asset" : {"generator" : "Aspose.3D 22.7", "version" : "2.0"}, "buffers" : [{"uri" : "data:application/octet-stream;base64,", "byteLength" : 311540}], "bufferViews" : [{"buffer" : 0, "byteOffset" : 0, "byteLength" : 23964, "target" : 34963}, {"buffer" : 0, "byteOffset" : 23968, "byteLength" : 287568, "byteStride" : 24, "target" : 34962}], "meshes" : [{"primitives" : [{"attributes" : {"POSITION" : 1, "NORMAL" : 2}, "indices" : 0, "mode" : 4}], "name" : ""}], "nodes" : [{"mesh" : 0, "name" : ""}], "scene" : 0, "scenes" : [{"nodes" : [0]}]}